<?xml version="1.0" standalone="no"?>
<!DOCTYPE svg PUBLIC "-//W3C//DTD SVG 20010904//EN"
 "http://www.w3.org/TR/2001/REC-SVG-20010904/DTD/svg10.dtd">
<svg version="1.0" xmlns="http://www.w3.org/2000/svg"
 width="360.000000pt" height="360.000000pt" viewBox="0 0 360.000000 360.000000"
 preserveAspectRatio="xMidYMid meet">

<g transform="translate(0.000000,360.000000) scale(0.100000,-0.100000)"
fill="#000000" stroke="none">
<path d="M1685 2906 c-108 -29 -185 -79 -185 -122 0 -16 -11 -31 -35 -46 -50
-33 -70 -91 -70 -203 0 -74 -3 -93 -18 -108 -14 -14 -17 -26 -11 -50 9 -44 37
-98 63 -121 12 -11 31 -51 42 -90 12 -38 31 -93 44 -121 52 -117 184 -215 289
-215 138 0 267 129 325 326 13 44 31 79 47 95 34 32 43 49 54 109 10 54 5 80
-15 80 -10 0 -12 17 -8 73 13 172 -87 322 -253 377 -78 26 -204 34 -269 16z"/>
<path d="M1485 1873 c-16 -9 -88 -41 -160 -70 -146 -60 -208 -98 -278 -168
-89 -91 -127 -205 -127 -385 0 -63 3 -125 6 -137 7 -27 103 -95 186 -133 111
-50 220 -78 441 -115 26 -4 27 -3 27 44 0 32 5 51 14 54 7 3 16 24 19 48 7 51
30 84 86 124 36 25 52 30 99 29 31 0 71 -8 88 -17 48 -25 93 -82 100 -128 4
-22 13 -46 20 -54 8 -7 14 -32 14 -54 0 -39 2 -41 29 -41 48 0 230 38 316 66
96 31 223 97 269 139 30 27 35 39 41 100 11 96 0 230 -24 298 -44 128 -154
236 -301 298 -41 17 -119 51 -172 74 l-98 43 -32 -36 c-81 -93 -177 -152 -247
-152 -57 0 -139 46 -215 122 -37 37 -69 68 -70 68 0 -1 -14 -8 -31 -17z"/>
<path d="M1764 1060 c-26 -10 -54 -48 -54 -72 0 -16 11 -18 96 -18 94 0 95 0
89 23 -16 53 -83 88 -131 67z"/>
</g>
</svg>
